<svg width="105" height="31" viewBox="0 0 105 31" fill="none" xmlns="http://www.w3.org/2000/svg">
<path d="M5.888 30.976C4.65067 30.976 3.584 30.752 2.688 30.304C1.81333 29.8773 1.14133 29.248 0.672 28.416C0.224 27.584 0 26.6027 0 25.472C0 24.4693 0.192 23.36 0.576 22.144C0.981333 20.928 1.68533 19.6907 2.688 18.432C3.712 17.1733 5.14133 16 6.976 14.912V5.632H2.496V1.6H11.52V24.896C11.52 26.0053 11.3173 27.0187 10.912 27.936C10.5067 28.8747 9.888 29.6107 9.056 30.144C8.224 30.6987 7.168 30.976 5.888 30.976ZM5.6 26.88C5.89867 26.88 6.144 26.7947 6.336 26.624C6.54933 26.4747 6.69867 26.2507 6.784 25.952C6.89067 25.6747 6.944 25.344 6.944 24.96V19.552C5.984 20.3627 5.312 21.1413 4.928 21.888C4.56533 22.6347 4.36267 23.2853 4.32 23.84C4.27733 24.3733 4.256 24.7467 4.256 24.96C4.256 25.5787 4.384 26.048 4.64 26.368C4.91733 26.7093 5.23733 26.88 5.6 26.88ZM24.054 24C22.198 24 20.5767 23.648 19.19 22.944C17.8247 22.2187 16.758 21.2373 15.99 20C15.2433 18.7627 14.87 17.376 14.87 15.84C14.87 14.112 15.222 12.608 15.926 11.328C16.63 10.048 17.59 9.056 18.806 8.352C20.022 7.648 21.398 7.296 22.934 7.296C24.7687 7.296 26.2513 7.68 27.382 8.448C28.534 9.216 29.3767 10.2507 29.91 11.552C30.4433 12.832 30.71 14.2613 30.71 15.84C30.71 16.0533 30.6993 16.3093 30.678 16.608C30.6567 16.8853 30.6247 17.0987 30.582 17.248H19.542C19.7127 17.9093 20.0007 18.464 20.406 18.912C20.8327 19.36 21.3553 19.7013 21.974 19.936C22.614 20.1493 23.3287 20.256 24.118 20.256H28.662V24H24.054ZM19.51 14.304H26.326C26.2833 13.8987 26.2087 13.5253 26.102 13.184C25.9953 12.8213 25.846 12.5013 25.654 12.224C25.462 11.9467 25.238 11.712 24.982 11.52C24.726 11.328 24.4273 11.1787 24.086 11.072C23.7447 10.9653 23.3713 10.912 22.966 10.912C22.4327 10.912 21.9527 11.008 21.526 11.2C21.1207 11.392 20.7793 11.648 20.502 11.968C20.2247 12.288 20.0007 12.6507 19.83 13.056C19.6807 13.4613 19.574 13.8773 19.51 14.304ZM33.7988 24V0.639999H38.1828V24H33.7988ZM42.33 24V0.639999H46.714V24H42.33ZM56.6853 30.496V24.16C55.4479 23.904 54.3919 23.4347 53.5173 22.752C52.6639 22.0693 52.0026 21.2373 51.5333 20.256C51.0853 19.2533 50.8613 18.1867 50.8613 17.056V7.68H55.2453V17.056C55.2453 17.7173 55.4053 18.3253 55.7253 18.88C56.0453 19.4133 56.4719 19.84 57.0052 20.16C57.5599 20.48 58.1679 20.64 58.8293 20.64C59.4906 20.64 60.0879 20.48 60.6213 20.16C61.1759 19.84 61.6133 19.4133 61.9333 18.88C62.2533 18.3253 62.4133 17.7173 62.4133 17.056V7.68H66.7973V17.056C66.7973 18.1867 66.5733 19.2427 66.1253 20.224C65.6773 21.184 65.0266 22.016 64.1733 22.72C63.3199 23.4027 62.2853 23.872 61.0693 24.128V30.496H56.6853ZM73.131 24.384C72.3203 24.384 71.6163 24.096 71.019 23.52C70.443 22.9227 70.155 22.2187 70.155 21.408C70.155 20.5973 70.443 19.904 71.019 19.328C71.6163 18.7307 72.3203 18.432 73.131 18.432C73.9417 18.432 74.635 18.7307 75.211 19.328C75.8083 19.904 76.107 20.5973 76.107 21.408C76.107 21.9413 75.9683 22.4427 75.691 22.912C75.435 23.36 75.083 23.7227 74.635 24C74.187 24.256 73.6857 24.384 73.131 24.384ZM87.423 24.384C85.759 24.384 84.3297 24.0533 83.135 23.392C81.9403 22.7307 81.023 21.8453 80.383 20.736C79.7643 19.6267 79.455 18.4 79.455 17.056V7.68H83.839V17.056C83.839 17.7173 83.999 18.3253 84.319 18.88C84.639 19.4133 85.0657 19.84 85.599 20.16C86.1537 20.48 86.7617 20.64 87.423 20.64C88.0843 20.64 88.6817 20.48 89.215 20.16C89.7697 19.84 90.207 19.4133 90.527 18.88C90.847 18.3253 91.007 17.7173 91.007 17.056V7.68H95.391V17.056C95.391 18.4 95.071 19.6267 94.431 20.736C93.8123 21.8453 92.9057 22.7307 91.711 23.392C90.5377 24.0533 89.1083 24.384 87.423 24.384ZM99.5488 24V7.68H103.965V24H99.5488ZM101.757 5.728C101.01 5.728 100.359 5.46133 99.8048 4.928C99.2714 4.37333 99.0048 3.72267 99.0048 2.976C99.0048 2.22933 99.2714 1.58933 99.8048 1.056C100.359 0.501333 101.01 0.223999 101.757 0.223999C102.503 0.223999 103.143 0.501333 103.677 1.056C104.231 1.58933 104.509 2.22933 104.509 2.976C104.509 3.72267 104.231 4.37333 103.677 4.928C103.143 5.46133 102.503 5.728 101.757 5.728Z" fill="#222222"/>
</svg>
